HIERARCHY
ROOT root
{
	OFFSET 0.000000 0.000000 0.000000
	CHANNELS 6 Xposition Yposition Zposition Zrotation Yrotation Xrotation
	JOINT lhip
	{
		OFFSET 0.058581 -0.082280 -0.017664
		CHANNELS 3 Zrotation Yrotation Xrotation
		JOINT lknee
		{
			OFFSET 0.043451 -0.386469 0.008037
			CHANNELS 3 Zrotation Yrotation Xrotation
			JOINT lankle
			{
				OFFSET -0.014790 -0.426874 -0.037428
				CHANNELS 3 Zrotation Yrotation Xrotation
				JOINT ltoe
				{
					OFFSET 0.041054 -0.060286 0.122042
					CHANNELS 3 Zrotation Yrotation Xrotation
					End Site
					{
						OFFSET 0.000000 0.000000 0.000000
					}
				}
			}
		}
	}
	JOINT rhip
	{
		OFFSET -0.060310 -0.090513 -0.013543
		CHANNELS 3 Zrotation Yrotation Xrotation
		JOINT rknee
		{
			OFFSET -0.043257 -0.383688 -0.004843
			CHANNELS 3 Zrotation Yrotation Xrotation
			JOINT rankle
			{
				OFFSET 0.019056 -0.420046 -0.034562
				CHANNELS 3 Zrotation Yrotation Xrotation
				JOINT rtoe
				{
					OFFSET -0.034840 -0.062106 0.130323
					CHANNELS 3 Zrotation Yrotation Xrotation
					End Site
					{
						OFFSET 0.000000 0.000000 0.000000
					}
				}
			}
		}
	}
	JOINT lowerback
	{
		OFFSET 0.004439 0.124404 -0.038385
		CHANNELS 3 Zrotation Yrotation Xrotation
		JOINT upperback
		{
			OFFSET 0.004488 0.137956 0.026820
			CHANNELS 3 Zrotation Yrotation Xrotation
			JOINT chest
			{
				OFFSET -0.002265 0.056032 0.002855
				CHANNELS 3 Zrotation Yrotation Xrotation
				JOINT lowerneck
				{
					OFFSET -0.013390 0.211636 -0.033468
					CHANNELS 3 Zrotation Yrotation Xrotation
					JOINT upperneck
					{
						OFFSET 0.010113 0.088937 0.050410
						CHANNELS 3 Zrotation Yrotation Xrotation
						End Site
						{
							OFFSET 0.000000 0.000000 0.000000
						}
					}
				}
				JOINT lclavicle
				{
					OFFSET 0.071702 0.114000 -0.018898
					CHANNELS 3 Zrotation Yrotation Xrotation
					JOINT lshoulder
					{
						OFFSET 0.122921 0.045205 -0.019046
						CHANNELS 3 Zrotation Yrotation Xrotation
						JOINT lelbow
						{
							OFFSET 0.255332 -0.015649 -0.022946
							CHANNELS 3 Zrotation Yrotation Xrotation
							JOINT lwrist
							{
								OFFSET 0.265709 0.012698 -0.007375
								CHANNELS 3 Zrotation Yrotation Xrotation
								End Site
								{
									OFFSET 0.000000 0.000000 0.000000
								}
							}
						}
					}
				}
				JOINT rclavicle
				{
					OFFSET -0.082954 0.112472 -0.023707
					CHANNELS 3 Zrotation Yrotation Xrotation
					JOINT rshoulder
					{
						OFFSET -0.113228 0.046853 -0.008472
						CHANNELS 3 Zrotation Yrotation Xrotation
						JOINT relbow
						{
							OFFSET -0.260127 -0.014369 -0.031269
							CHANNELS 3 Zrotation Yrotation Xrotation
							JOINT rwrist
							{
								OFFSET -0.269108 0.006794 -0.006027
								CHANNELS 3 Zrotation Yrotation Xrotation
								End Site
								{
									OFFSET 0.000000 0.000000 0.000000
								}
							}
						}
					}
				}
			}
		}
	}
}
MOTION
Frames: 10
Frame Time: 0.033333
-1.325455 0.295669 1.016459 97.088775 -3.285745 82.305353 -6.837371 -0.653635 3.821184 -5.991941 -13.508088 0.706966 0.663394 7.187305 -9.352872 0.000000 -0.000000 0.000000 -3.988285 -0.436341 -14.360101 -1.616812 -5.060781 61.671831 5.005470 -14.783288 -7.505468 0.000000 -0.000000 0.000000 -6.520622 1.251085 18.467195 0.996321 -1.829732 -0.994956 0.072086 -1.732883 2.402836 3.220487 7.616706 -15.412389 -0.910676 -2.052318 0.979255 -25.859131 -0.080871 -0.366860 -48.857495 -5.853582 9.342589 6.730494 -26.054698 3.360604 5.689679 -5.617827 -9.615039 32.182532 1.700852 -1.254244 51.169560 4.690219 11.308373 -19.183114 17.542594 -23.242112 -2.648296 3.587155 -14.273238 
-1.304709 0.298459 1.016801 98.328703 -2.594104 81.467043 -6.552297 0.196298 5.883408 -5.608667 -14.983928 1.486246 1.492891 7.434934 -9.721259 0.000000 -0.000000 0.000000 -4.069539 -0.076156 -16.379467 -1.719883 -5.493382 58.240251 5.352730 -15.011143 -8.891160 0.000000 -0.000000 0.000000 -6.253489 0.410916 18.915365 1.192046 -2.016010 -1.162267 0.189096 -2.317628 2.574833 3.531472 7.279438 -14.996387 -0.891201 -2.479330 1.368703 -25.828983 -1.153542 -0.355924 -48.177869 -7.877842 9.187693 6.936709 -25.687019 1.891681 6.694730 -5.630342 -9.844656 31.997770 1.681822 -1.616338 50.471237 4.510784 11.550176 -19.741655 19.822531 -23.604704 -3.212816 3.920596 -14.911904 
-1.284743 0.300568 1.016610 99.377742 -1.930507 80.855613 -6.448498 0.615420 7.714408 -4.972751 -16.062766 1.987328 2.773756 7.441714 -9.407303 0.000000 -0.000000 0.000000 -4.230139 0.110329 -18.294807 -1.753035 -5.705920 53.979361 5.865791 -14.744583 -10.090448 0.000000 -0.000000 0.000000 -5.838139 -0.508233 19.360717 1.261602 -2.381816 -1.283430 0.256732 -2.631531 2.439107 3.581785 7.369033 -14.275490 -0.624660 -2.188603 1.571928 -25.609627 -2.044963 -0.381632 -47.624333 -9.542614 9.018757 7.158058 -25.805222 0.360894 7.505585 -5.558354 -10.054845 31.668735 2.034077 -1.639216 50.341502 4.348330 11.865555 -20.857602 21.902881 -24.555016 -3.626773 4.237230 -15.643082 
-1.265452 0.302139 1.016295 99.835621 -1.090579 80.521964 -6.217556 1.117749 8.988821 -4.219871 -16.791417 2.712104 4.067235 8.350909 -9.834924 0.000000 -0.000000 0.000000 -4.111714 0.208195 -20.149869 -1.610371 -5.727246 48.959308 6.252808 -14.095777 -11.337609 0.000000 -0.000000 0.000000 -5.187728 -1.062022 19.573369 1.454613 -2.386482 -1.528438 0.417772 -3.112545 2.612418 3.644276 7.463401 -14.070760 -0.578191 -2.133416 2.104243 -25.543062 -3.122975 -0.367771 -47.353401 -11.357228 8.859288 7.509100 -25.685680 -0.711087 7.859695 -5.772480 -9.924256 31.339007 2.145127 -1.883245 50.060503 4.657916 12.002318 -21.871085 23.828792 -24.693202 -3.523865 4.375541 -15.541230 
-1.245916 0.303110 1.015717 100.248608 -0.461323 80.573924 -5.765701 1.665599 9.957311 -3.820480 -17.362341 3.496957 4.924477 8.476142 -10.671374 0.000000 -0.000000 0.000000 -4.303162 -0.174088 -22.034501 -1.438921 -6.129737 43.729425 6.662159 -13.133283 -11.497604 0.000000 -0.000000 0.000000 -4.716032 -1.658548 19.590820 1.613354 -2.638055 -1.986500 0.559602 -3.437368 2.468056 3.877438 7.403873 -13.494086 -0.533602 -1.928985 2.838140 -25.356403 -3.576569 -0.227727 -47.189688 -12.822444 8.757099 7.639573 -26.012943 -1.357656 7.660015 -6.159766 -9.963674 31.014331 2.237533 -1.983228 49.887113 5.254102 12.195714 -22.506973 25.130161 -24.634041 -2.442489 4.860611 -15.521183 
-1.225730 0.303520 1.015475 100.187773 0.011536 80.564911 -4.905668 2.309393 11.177476 -3.834612 -17.742745 4.022955 4.592584 8.486423 -12.067568 0.000000 -0.000000 0.000000 -4.426751 -0.438229 -23.167452 -1.214025 -6.968634 37.616459 7.212034 -12.285188 -10.772447 0.000000 -0.000000 0.000000 -4.478421 -2.351825 20.003287 1.706066 -2.875733 -2.659775 0.748462 -3.631523 2.337481 4.233982 7.803164 -13.107507 -0.555151 -1.713950 3.404249 -24.988308 -3.674525 -0.452784 -47.361452 -13.773977 8.784309 7.589320 -26.306214 -1.529141 7.263939 -6.188488 -9.794620 31.141816 2.506508 -2.168137 49.724818 6.213106 12.525664 -23.190674 25.982423 -24.671789 -1.577249 4.608565 -14.772850 
-1.204309 0.303841 1.014218 100.075744 0.274373 80.715315 -4.206940 2.912630 12.552040 -3.841091 -18.131250 4.057920 4.449131 8.231744 -13.403773 0.000000 -0.000000 0.000000 -4.603700 -1.233675 -23.939526 -0.547350 -7.811693 31.295270 7.953265 -11.231404 -9.720594 0.000000 -0.000000 0.000000 -4.303188 -2.430590 19.746595 1.828613 -3.009185 -2.813467 0.989331 -4.028193 2.161802 4.189580 8.181557 -12.716812 -0.600500 -1.598213 4.129432 -24.817215 -4.223499 -0.160029 -47.343668 -14.945320 8.858833 7.304842 -26.304457 -1.575505 7.023706 -6.813350 -9.665649 31.045379 2.793902 -2.336512 49.964144 7.256599 12.530899 -23.399768 25.831450 -24.954823 -1.376210 4.854281 -15.061249 
-1.182099 0.303821 1.011612 99.898870 0.466264 81.275370 -3.723319 3.367475 13.395286 -3.682079 -18.182224 4.271710 4.191545 7.847830 -14.367515 0.000000 -0.000000 0.000000 -4.625326 -2.044500 -24.571935 -0.065466 -9.338043 24.810212 9.137633 -10.231646 -8.332542 0.000000 -0.000000 0.000000 -3.917722 -2.470305 18.977250 1.880597 -3.296762 -2.935694 1.029041 -4.350654 2.054461 4.222815 8.744201 -12.213431 -0.566885 -1.482824 4.549090 -24.517847 -4.783256 0.344760 -47.442460 -15.758061 9.041194 7.035286 -26.617744 -1.137467 6.238346 -6.968936 -9.003010 31.063880 3.001139 -2.416526 50.304852 8.224398 12.408508 -23.745655 25.588995 -24.967416 -0.672309 4.487030 -14.763249 
-1.159847 0.303764 1.008287 99.418386 0.454236 81.924912 -3.642131 3.507058 14.051005 -3.656059 -18.317506 4.649243 4.533956 8.462272 -15.676277 0.000000 -0.000000 0.000000 -4.479830 -2.319070 -25.240717 0.151511 -10.214792 19.040379 10.607195 -9.805253 -6.281107 0.000000 -0.000000 0.000000 -3.560572 -2.669773 18.546208 1.751242 -3.268549 -3.577535 0.938134 -4.456281 1.977987 4.299252 9.152532 -11.842529 -0.693965 -1.397933 5.418291 -24.175003 -5.131618 0.612044 -47.646146 -16.428182 9.401059 6.489390 -26.579150 -0.206630 5.271018 -7.604785 -8.157596 31.016123 3.194574 -2.250747 50.679320 8.919195 12.582516 -23.701204 25.160178 -24.838121 -0.119086 4.585787 -14.538108 
-1.135366 0.303737 1.004372 99.174789 0.131080 82.549751 -3.756933 4.024803 14.778870 -3.554016 -18.520883 5.366649 4.877276 8.331975 -16.889410 0.000000 -0.000000 0.000000 -4.421041 -2.768586 -25.679381 0.155582 -10.585522 14.724640 11.409561 -9.646715 -5.380853 0.000000 -0.000000 0.000000 -3.411474 -2.930527 18.167563 1.586214 -3.503817 -3.968239 0.762283 -4.410075 1.682362 4.456209 9.066175 -11.868642 -0.730077 -1.431483 6.116391 -24.053064 -5.353461 0.855486 -47.589576 -16.688046 9.481916 5.851018 -26.824656 1.301223 3.402109 -7.222933 -6.992245 31.123484 3.314173 -2.114742 51.294457 9.184002 12.496212 -23.993506 24.821554 -24.793296 1.090451 4.674748 -14.127538 
